<?xml version="1.0" encoding="iso-8859-1"?>
<!-- Generator: Adobe Illustrator 19.0.0, SVG Export Plug-In . SVG Version: 6.00 Build 0)  -->
<svg version="1.1" id="Capa_1" xmlns="http://www.w3.org/2000/svg" xmlns:xlink="http://www.w3.org/1999/xlink" x="0px" y="0px"
	 viewBox="0 0 512 512" style="enable-background:new 0 0 512 512;" xml:space="preserve">
<g>
	<g>
		<path d="M404.048,74.024h-52.434V46.265C351.614,20.754,330.861,0,305.349,0h-98.699c-25.511,0-46.265,20.754-46.265,46.265
			v27.759h-52.434c-25.511,0-46.265,20.754-46.265,46.265v37.012c0,5.111,4.142,9.253,9.253,9.253h16.06l24.062,336.852
			c0.345,4.842,4.374,8.594,9.228,8.594h271.422c4.855,0,8.883-3.752,9.228-8.594l21.149-296.078c0.365-5.098-3.473-9.524-8.57-9.89
			c-5.098-0.362-9.526,3.472-9.888,8.571l-20.534,287.485H128.904l-23.352-326.94h45.58h27.759v243.663
			c0,5.103-4.15,9.253-9.253,9.253s-9.253-4.15-9.253-9.253V205.823c0-5.111-4.142-9.253-9.253-9.253
			c-5.111,0-9.253,4.142-9.253,9.253v204.394c0,15.306,12.453,27.759,27.759,27.759s27.759-12.453,27.759-27.759V166.554h30.843
			v243.663c0,15.306,12.453,27.759,27.759,27.759s27.759-12.453,27.759-27.759V166.554h30.843v243.663
			c0,15.306,12.453,27.759,27.759,27.759s27.759-12.453,27.759-27.759V166.554h46.265h24.675c5.111,0,9.253-4.142,9.253-9.253
			v-37.012C450.313,94.778,429.559,74.024,404.048,74.024z M178.892,46.265c0-15.306,12.453-27.759,27.759-27.759h98.699
			c15.306,0,27.759,12.453,27.759,27.759v27.759h-18.506V46.265c0-5.111-4.142-9.253-9.253-9.253h-98.699
			c-5.111,0-9.253,4.142-9.253,9.253v27.759h-18.506V46.265z M296.096,55.518v18.506h-80.193V55.518H296.096z M265.253,410.217
			c0,5.103-4.15,9.253-9.253,9.253c-5.103,0-9.253-4.15-9.253-9.253V166.554h18.506V410.217z M351.614,410.217
			c0,5.103-4.15,9.253-9.253,9.253s-9.253-4.15-9.253-9.253V166.554h18.506V410.217z M431.807,148.048h-15.422H95.614H80.193
			v-27.759c0-15.306,12.453-27.759,27.759-27.759h296.096c15.306,0,27.759,12.453,27.759,27.759V148.048z"/>
	</g>
</g>
<g>
</g>
<g>
</g>
<g>
</g>
<g>
</g>
<g>
</g>
<g>
</g>
<g>
</g>
<g>
</g>
<g>
</g>
<g>
</g>
<g>
</g>
<g>
</g>
<g>
</g>
<g>
</g>
<g>
</g>
</svg>
